solid STL generated by MeshLab
  facet normal  0.000000e+00  0.000000e+00 -1.000000e+00
    outer loop
      vertex   1.050000e+02  1.100000e+02  2.000000e+01
      vertex   1.450000e+02  1.100000e+02  2.000000e+01
      vertex   1.050000e+02  9.000000e+01  2.000000e+01
    endloop
  endfacet
  facet normal  0.000000e+00  0.000000e+00 -1.000000e+00
    outer loop
      vertex   1.450000e+02  9.000000e+01  2.000000e+01
      vertex   1.050000e+02  9.000000e+01  2.000000e+01
      vertex   1.450000e+02  1.100000e+02  2.000000e+01
    endloop
  endfacet
  facet normal  0.000000e+00  0.000000e+00  1.000000e+00
    outer loop
      vertex   1.450000e+02  1.100000e+02  4.000000e+01
      vertex   1.050000e+02  9.000000e+01  4.000000e+01
      vertex   1.450000e+02  9.000000e+01  4.000000e+01
    endloop
  endfacet
  facet normal  0.000000e+00 -1.000000e+00  0.000000e+00
    outer loop
      vertex   1.050000e+02  9.000000e+01  4.000000e+01
      vertex   1.050000e+02  9.000000e+01  2.000000e+01
      vertex   1.450000e+02  9.000000e+01  2.000000e+01
    endloop
  endfacet
  facet normal  0.000000e+00  1.000000e+00  0.000000e+00
    outer loop
      vertex   1.450000e+02  1.100000e+02  2.000000e+01
      vertex   1.050000e+02  1.100000e+02  2.000000e+01
      vertex   1.050000e+02  1.100000e+02  4.000000e+01
    endloop
  endfacet
  facet normal  0.000000e+00  1.000000e+00 -0.000000e+00
    outer loop
      vertex   1.450000e+02  1.100000e+02  2.000000e+01
      vertex   1.050000e+02  1.100000e+02  4.000000e+01
      vertex   1.450000e+02  1.100000e+02  4.000000e+01
    endloop
  endfacet
  facet normal  0.000000e+00  0.000000e+00  1.000000e+00
    outer loop
      vertex   1.450000e+02  1.100000e+02  4.000000e+01
      vertex   1.050000e+02  1.100000e+02  4.000000e+01
      vertex   1.050000e+02  9.000000e+01  4.000000e+01
    endloop
  endfacet
  facet normal  0.000000e+00  0.000000e+00 -1.000000e+00
    outer loop
      vertex   1.250000e+02  9.000000e+01  6.000000e+01
      vertex   1.050000e+02  9.000000e+01  6.000000e+01
      vertex   1.050000e+02  1.100000e+02  6.000000e+01
    endloop
  endfacet
  facet normal  0.000000e+00  0.000000e+00 -1.000000e+00
    outer loop
      vertex   1.250000e+02  9.000000e+01  6.000000e+01
      vertex   1.050000e+02  1.100000e+02  6.000000e+01
      vertex   1.250000e+02  1.100000e+02  6.000000e+01
    endloop
  endfacet
  facet normal  1.000000e+00  0.000000e+00  0.000000e+00
    outer loop
      vertex   1.450000e+02  9.000000e+01  4.000000e+01
      vertex   1.450000e+02  9.000000e+01  2.000000e+01
      vertex   1.450000e+02  1.100000e+02  2.000000e+01
    endloop
  endfacet
  facet normal  1.000000e+00 -0.000000e+00  0.000000e+00
    outer loop
      vertex   1.450000e+02  9.000000e+01  4.000000e+01
      vertex   1.450000e+02  1.100000e+02  2.000000e+01
      vertex   1.450000e+02  1.100000e+02  4.000000e+01
    endloop
  endfacet
  facet normal  0.000000e+00  0.000000e+00  1.000000e+00
    outer loop
      vertex   1.250000e+02  1.100000e+02  8.000000e+01
      vertex   1.050000e+02  1.100000e+02  8.000000e+01
      vertex   1.050000e+02  9.000000e+01  8.000000e+01
    endloop
  endfacet
  facet normal  0.000000e+00  0.000000e+00  1.000000e+00
    outer loop
      vertex   1.250000e+02  1.100000e+02  8.000000e+01
      vertex   1.050000e+02  9.000000e+01  8.000000e+01
      vertex   1.250000e+02  9.000000e+01  8.000000e+01
    endloop
  endfacet
  facet normal  1.000000e+00  0.000000e+00  0.000000e+00
    outer loop
      vertex   1.250000e+02  9.000000e+01  8.000000e+01
      vertex   1.250000e+02  9.000000e+01  6.000000e+01
      vertex   1.250000e+02  1.100000e+02  6.000000e+01
    endloop
  endfacet
  facet normal  1.000000e+00 -0.000000e+00  0.000000e+00
    outer loop
      vertex   1.250000e+02  9.000000e+01  8.000000e+01
      vertex   1.250000e+02  1.100000e+02  6.000000e+01
      vertex   1.250000e+02  1.100000e+02  8.000000e+01
    endloop
  endfacet
  facet normal -0.000000e+00 -1.000000e+00 -0.000000e+00
    outer loop
      vertex   1.450000e+02  9.000000e+01  4.000000e+01
      vertex   1.050000e+02  9.000000e+01  4.000000e+01
      vertex   1.450000e+02  9.000000e+01  2.000000e+01
    endloop
  endfacet
  facet normal -0.000000e+00 -1.000000e+00  0.000000e+00
    outer loop
      vertex   1.250000e+02  9.000000e+01  8.000000e+01
      vertex   1.050000e+02  9.000000e+01  8.000000e+01
      vertex   1.050000e+02  9.000000e+01  6.000000e+01
    endloop
  endfacet
  facet normal  0.000000e+00 -1.000000e+00 -0.000000e+00
    outer loop
      vertex   1.250000e+02  9.000000e+01  8.000000e+01
      vertex   1.050000e+02  9.000000e+01  6.000000e+01
      vertex   1.250000e+02  9.000000e+01  6.000000e+01
    endloop
  endfacet
  facet normal  0.000000e+00  1.000000e+00  0.000000e+00
    outer loop
      vertex   1.250000e+02  1.100000e+02  6.000000e+01
      vertex   1.050000e+02  1.100000e+02  6.000000e+01
      vertex   1.050000e+02  1.100000e+02  8.000000e+01
    endloop
  endfacet
  facet normal  0.000000e+00  1.000000e+00 -0.000000e+00
    outer loop
      vertex   1.250000e+02  1.100000e+02  6.000000e+01
      vertex   1.050000e+02  1.100000e+02  8.000000e+01
      vertex   1.250000e+02  1.100000e+02  8.000000e+01
    endloop
  endfacet
  facet normal  1.000000e+00  0.000000e+00  0.000000e+00
    outer loop
      vertex   1.050000e+02  9.000000e+01  6.000000e+01
      vertex   1.050000e+02  9.000000e+01  4.000000e+01
      vertex   1.050000e+02  1.100000e+02  4.000000e+01
    endloop
  endfacet
  facet normal  1.000000e+00 -0.000000e+00  0.000000e+00
    outer loop
      vertex   1.050000e+02  9.000000e+01  6.000000e+01
      vertex   1.050000e+02  1.100000e+02  4.000000e+01
      vertex   1.050000e+02  1.100000e+02  6.000000e+01
    endloop
  endfacet
  facet normal  1.000000e+00  0.000000e+00  0.000000e+00
    outer loop
      vertex   1.050000e+02  9.000000e+01  2.000000e+01
      vertex   1.050000e+02  9.000000e+01  0.000000e+00
      vertex   1.050000e+02  1.100000e+02  0.000000e+00
    endloop
  endfacet
  facet normal  1.000000e+00 -0.000000e+00  0.000000e+00
    outer loop
      vertex   1.050000e+02  9.000000e+01  2.000000e+01
      vertex   1.050000e+02  1.100000e+02  0.000000e+00
      vertex   1.050000e+02  1.100000e+02  2.000000e+01
    endloop
  endfacet
  facet normal  1.000000e+00  0.000000e+00  0.000000e+00
    outer loop
      vertex   1.050000e+02  9.000000e+01  1.000000e+02
      vertex   1.050000e+02  9.000000e+01  8.000000e+01
      vertex   1.050000e+02  1.100000e+02  8.000000e+01
    endloop
  endfacet
  facet normal  1.000000e+00 -0.000000e+00  0.000000e+00
    outer loop
      vertex   1.050000e+02  9.000000e+01  1.000000e+02
      vertex   1.050000e+02  1.100000e+02  8.000000e+01
      vertex   1.050000e+02  1.100000e+02  1.000000e+02
    endloop
  endfacet
  facet normal  0.000000e+00  0.000000e+00 -1.000000e+00
    outer loop
      vertex   8.500000e+01  9.000000e+01  6.000000e+01
      vertex   6.500000e+01  9.000000e+01  6.000000e+01
      vertex   6.500000e+01  1.100000e+02  6.000000e+01
    endloop
  endfacet
  facet normal  0.000000e+00  0.000000e+00 -1.000000e+00
    outer loop
      vertex   8.500000e+01  9.000000e+01  6.000000e+01
      vertex   6.500000e+01  1.100000e+02  6.000000e+01
      vertex   8.500000e+01  1.100000e+02  6.000000e+01
    endloop
  endfacet
  facet normal  0.000000e+00  0.000000e+00  1.000000e+00
    outer loop
      vertex   8.500000e+01  1.100000e+02  8.000000e+01
      vertex   6.500000e+01  1.100000e+02  8.000000e+01
      vertex   6.500000e+01  9.000000e+01  8.000000e+01
    endloop
  endfacet
  facet normal  0.000000e+00  0.000000e+00  1.000000e+00
    outer loop
      vertex   8.500000e+01  1.100000e+02  8.000000e+01
      vertex   6.500000e+01  9.000000e+01  8.000000e+01
      vertex   8.500000e+01  9.000000e+01  8.000000e+01
    endloop
  endfacet
  facet normal -1.000000e+00  0.000000e+00 -0.000000e+00
    outer loop
      vertex   8.500000e+01  1.100000e+02  1.000000e+02
      vertex   8.500000e+01  1.100000e+02  8.000000e+01
      vertex   8.500000e+01  9.000000e+01  8.000000e+01
    endloop
  endfacet
  facet normal -1.000000e+00 -0.000000e+00  0.000000e+00
    outer loop
      vertex   8.500000e+01  1.100000e+02  1.000000e+02
      vertex   8.500000e+01  9.000000e+01  8.000000e+01
      vertex   8.500000e+01  9.000000e+01  1.000000e+02
    endloop
  endfacet
  facet normal  0.000000e+00  0.000000e+00  1.000000e+00
    outer loop
      vertex   1.050000e+02  1.100000e+02  1.000000e+02
      vertex   8.500000e+01  1.100000e+02  1.000000e+02
      vertex   8.500000e+01  9.000000e+01  1.000000e+02
    endloop
  endfacet
  facet normal  0.000000e+00  0.000000e+00  1.000000e+00
    outer loop
      vertex   1.050000e+02  1.100000e+02  1.000000e+02
      vertex   8.500000e+01  9.000000e+01  1.000000e+02
      vertex   1.050000e+02  9.000000e+01  1.000000e+02
    endloop
  endfacet
  facet normal  0.000000e+00  0.000000e+00 -1.000000e+00
    outer loop
      vertex   1.050000e+02  9.000000e+01  0.000000e+00
      vertex   8.500000e+01  9.000000e+01  0.000000e+00
      vertex   8.500000e+01  1.100000e+02  0.000000e+00
    endloop
  endfacet
  facet normal  0.000000e+00  0.000000e+00 -1.000000e+00
    outer loop
      vertex   1.050000e+02  9.000000e+01  0.000000e+00
      vertex   8.500000e+01  1.100000e+02  0.000000e+00
      vertex   1.050000e+02  1.100000e+02  0.000000e+00
    endloop
  endfacet
  facet normal  0.000000e+00  1.000000e+00  0.000000e+00
    outer loop
      vertex   1.050000e+02  1.100000e+02  6.000000e+01
      vertex   1.050000e+02  1.100000e+02  4.000000e+01
      vertex   8.500000e+01  1.100000e+02  6.000000e+01
    endloop
  endfacet
  facet normal  0.000000e+00  1.000000e+00  0.000000e+00
    outer loop
      vertex   8.500000e+01  1.100000e+02  0.000000e+00
      vertex   8.500000e+01  1.100000e+02  6.000000e+01
      vertex   1.050000e+02  1.100000e+02  4.000000e+01
    endloop
  endfacet
  facet normal  0.000000e+00  1.000000e+00 -0.000000e+00
    outer loop
      vertex   1.050000e+02  1.100000e+02  2.000000e+01
      vertex   8.500000e+01  1.100000e+02  0.000000e+00
      vertex   1.050000e+02  1.100000e+02  4.000000e+01
    endloop
  endfacet
  facet normal  0.000000e+00  1.000000e+00 -0.000000e+00
    outer loop
      vertex   1.050000e+02  1.100000e+02  0.000000e+00
      vertex   8.500000e+01  1.100000e+02  0.000000e+00
      vertex   1.050000e+02  1.100000e+02  2.000000e+01
    endloop
  endfacet
  facet normal  0.000000e+00  1.000000e+00  0.000000e+00
    outer loop
      vertex   1.050000e+02  1.100000e+02  8.000000e+01
      vertex   1.050000e+02  1.100000e+02  6.000000e+01
      vertex   8.500000e+01  1.100000e+02  6.000000e+01
    endloop
  endfacet
  facet normal  0.000000e+00  1.000000e+00  0.000000e+00
    outer loop
      vertex   8.500000e+01  1.100000e+02  6.000000e+01
      vertex   8.500000e+01  1.100000e+02  8.000000e+01
      vertex   1.050000e+02  1.100000e+02  8.000000e+01
    endloop
  endfacet
  facet normal  0.000000e+00  1.000000e+00  0.000000e+00
    outer loop
      vertex   1.050000e+02  1.100000e+02  1.000000e+02
      vertex   1.050000e+02  1.100000e+02  8.000000e+01
      vertex   8.500000e+01  1.100000e+02  8.000000e+01
    endloop
  endfacet
  facet normal  0.000000e+00  1.000000e+00  0.000000e+00
    outer loop
      vertex   1.050000e+02  1.100000e+02  1.000000e+02
      vertex   8.500000e+01  1.100000e+02  8.000000e+01
      vertex   8.500000e+01  1.100000e+02  1.000000e+02
    endloop
  endfacet
  facet normal -1.000000e+00  0.000000e+00 -0.000000e+00
    outer loop
      vertex   6.500000e+01  1.100000e+02  8.000000e+01
      vertex   6.500000e+01  1.100000e+02  6.000000e+01
      vertex   6.500000e+01  9.000000e+01  6.000000e+01
    endloop
  endfacet
  facet normal -1.000000e+00 -0.000000e+00  0.000000e+00
    outer loop
      vertex   6.500000e+01  1.100000e+02  8.000000e+01
      vertex   6.500000e+01  9.000000e+01  6.000000e+01
      vertex   6.500000e+01  9.000000e+01  8.000000e+01
    endloop
  endfacet
  facet normal  0.000000e+00 -1.000000e+00  0.000000e+00
    outer loop
      vertex   8.500000e+01  9.000000e+01  6.000000e+01
      vertex   8.500000e+01  9.000000e+01  8.000000e+01
      vertex   6.500000e+01  9.000000e+01  8.000000e+01
    endloop
  endfacet
  facet normal  0.000000e+00 -1.000000e+00  0.000000e+00
    outer loop
      vertex   8.500000e+01  9.000000e+01  6.000000e+01
      vertex   6.500000e+01  9.000000e+01  8.000000e+01
      vertex   6.500000e+01  9.000000e+01  6.000000e+01
    endloop
  endfacet
  facet normal  0.000000e+00 -1.000000e+00  0.000000e+00
    outer loop
      vertex   8.500000e+01  9.000000e+01  6.000000e+01
      vertex   8.500000e+01  9.000000e+01  0.000000e+00
      vertex   1.050000e+02  9.000000e+01  2.000000e+01
    endloop
  endfacet
  facet normal  0.000000e+00 -1.000000e+00  0.000000e+00
    outer loop
      vertex   1.050000e+02  9.000000e+01  0.000000e+00
      vertex   1.050000e+02  9.000000e+01  2.000000e+01
      vertex   8.500000e+01  9.000000e+01  0.000000e+00
    endloop
  endfacet
  facet normal  0.000000e+00 -1.000000e+00  0.000000e+00
    outer loop
      vertex   1.050000e+02  9.000000e+01  2.000000e+01
      vertex   1.050000e+02  9.000000e+01  4.000000e+01
      vertex   8.500000e+01  9.000000e+01  6.000000e+01
    endloop
  endfacet
  facet normal  0.000000e+00 -1.000000e+00  0.000000e+00
    outer loop
      vertex   1.050000e+02  9.000000e+01  4.000000e+01
      vertex   1.050000e+02  9.000000e+01  6.000000e+01
      vertex   8.500000e+01  9.000000e+01  6.000000e+01
    endloop
  endfacet
  facet normal  0.000000e+00 -1.000000e+00  0.000000e+00
    outer loop
      vertex   8.500000e+01  9.000000e+01  8.000000e+01
      vertex   8.500000e+01  9.000000e+01  6.000000e+01
      vertex   1.050000e+02  9.000000e+01  6.000000e+01
    endloop
  endfacet
  facet normal  0.000000e+00 -1.000000e+00  0.000000e+00
    outer loop
      vertex   1.050000e+02  9.000000e+01  6.000000e+01
      vertex   1.050000e+02  9.000000e+01  8.000000e+01
      vertex   8.500000e+01  9.000000e+01  8.000000e+01
    endloop
  endfacet
  facet normal  0.000000e+00 -1.000000e+00  0.000000e+00
    outer loop
      vertex   8.500000e+01  9.000000e+01  1.000000e+02
      vertex   8.500000e+01  9.000000e+01  8.000000e+01
      vertex   1.050000e+02  9.000000e+01  8.000000e+01
    endloop
  endfacet
  facet normal  0.000000e+00 -1.000000e+00  0.000000e+00
    outer loop
      vertex   8.500000e+01  9.000000e+01  1.000000e+02
      vertex   1.050000e+02  9.000000e+01  8.000000e+01
      vertex   1.050000e+02  9.000000e+01  1.000000e+02
    endloop
  endfacet
  facet normal  0.000000e+00  1.000000e+00  0.000000e+00
    outer loop
      vertex   8.500000e+01  1.100000e+02  8.000000e+01
      vertex   8.500000e+01  1.100000e+02  6.000000e+01
      vertex   6.500000e+01  1.100000e+02  6.000000e+01
    endloop
  endfacet
  facet normal  0.000000e+00  1.000000e+00  0.000000e+00
    outer loop
      vertex   8.500000e+01  1.100000e+02  8.000000e+01
      vertex   6.500000e+01  1.100000e+02  6.000000e+01
      vertex   6.500000e+01  1.100000e+02  8.000000e+01
    endloop
  endfacet
  facet normal -1.000000e+00  0.000000e+00 -0.000000e+00
    outer loop
      vertex   8.500000e+01  1.100000e+02  6.000000e+01
      vertex   8.500000e+01  1.100000e+02  0.000000e+00
      vertex   8.500000e+01  9.000000e+01  0.000000e+00
    endloop
  endfacet
  facet normal -1.000000e+00 -0.000000e+00  0.000000e+00
    outer loop
      vertex   8.500000e+01  1.100000e+02  6.000000e+01
      vertex   8.500000e+01  9.000000e+01  0.000000e+00
      vertex   8.500000e+01  9.000000e+01  6.000000e+01
    endloop
  endfacet
endsolid vcg
