0
SECTION
2
HEADER
9
$INSUNITS
70
4
0
ENDSEC
0
SECTION
2
TABLES
0
TABLE
2
LAYER
70
5
0
LAYER
2
1
70
0
62
7
6
CONTINUOUS
0
LAYER
2
8
70
0
62
3
6
CONTINUOUS
0
LAYER
2
11
70
0
62
1
6
CONTINUOUS
0
LAYER
2
13
70
0
62
5
6
CONTINUOUS
0
LAYER
2
15
70
0
62
2
6
CONTINUOUS
0
ENDTAB
0
ENDSEC
0
SECTION
2
ENTITIES
0
POLYLINE
8
1
66
1
70
1
0
VERTEX
8
1
10
0.0000
20
0.0000
30
0.0
0
VERTEX
8
1
10
0.0000
20
410.0000
30
0.0
0
VERTEX
8
1
10
8.9792
20
409.5741
30
0.0
0
VERTEX
8
1
10
17.8333
20
409.0509
30
0.0
0
VERTEX
8
1
10
26.4375
20
408.4375
30
0.0
0
VERTEX
8
1
10
34.6667
20
407.7407
30
0.0
0
VERTEX
8
1
10
42.3958
20
406.9676
30
0.0
0
VERTEX
8
1
10
49.5000
20
406.1250
30
0.0
0
VERTEX
8
1
10
55.8542
20
405.2199
30
0.0
0
VERTEX
8
1
10
61.3333
20
404.2593
30
0.0
0
VERTEX
8
1
10
65.8125
20
403.2500
30
0.0
0
VERTEX
8
1
10
69.1667
20
402.1991
30
0.0
0
VERTEX
8
1
10
71.2708
20
401.1134
30
0.0
0
VERTEX
8
1
10
72.0000
20
400.0000
30
0.0
0
VERTEX
8
1
10
187.2562
20
360.0000
30
0.0
0
VERTEX
8
1
10
189.5331
20
343.7817
30
0.0
0
VERTEX
8
1
10
192.0176
20
329.2536
30
0.0
0
VERTEX
8
1
10
194.6188
20
316.1775
30
0.0
0
VERTEX
8
1
10
197.2463
20
304.3149
30
0.0
0
VERTEX
8
1
10
199.8091
20
293.4275
30
0.0
0
VERTEX
8
1
10
202.2166
20
283.2770
30
0.0
0
VERTEX
8
1
10
204.3781
20
273.6250
30
0.0
0
VERTEX
8
1
10
206.2029
20
264.2332
30
0.0
0
VERTEX
8
1
10
207.6002
20
254.8633
30
0.0
0
VERTEX
8
1
10
208.4794
20
245.2770
30
0.0
0
VERTEX
8
1
10
208.7496
20
235.2358
30
0.0
0
VERTEX
8
1
10
208.3203
20
224.5015
30
0.0
0
VERTEX
8
1
10
207.1007
20
212.8356
30
0.0
0
VERTEX
8
1
10
205.0000
20
200.0000
30
0.0
0
VERTEX
8
1
10
190.0000
20
0.0000
30
0.0
0
SEQEND
0
POLYLINE
8
8
66
1
70
0
0
VERTEX
8
8
10
92.5000
20
0.0000
30
0.0
0
VERTEX
8
8
10
102.5000
20
240.0000
30
0.0
0
VERTEX
8
8
10
112.5000
20
0.0000
30
0.0
0
SEQEND
0
LINE
8
11
10
92.5000
20
0.0000
30
0.0
11
92.5000
21
6.0000
31
0.0
0
LINE
8
11
10
112.5000
20
0.0000
30
0.0
11
112.5000
21
6.0000
31
0.0
0
LINE
8
11
10
205.0000
20
200.0000
30
0.0
11
199.0000
21
200.0000
31
0.0
0
LINE
8
13
10
15.0000
20
30.0000
30
0.0
11
15.0000
21
380.0000
31
0.0
0
LINE
8
13
10
15.0000
20
380.0000
30
0.0
11
7.2116
21
361.5788
31
0.0
0
LINE
8
13
10
15.0000
20
380.0000
30
0.0
11
22.7884
21
361.5788
31
0.0
0
LINE
8
13
10
15.0000
20
30.0000
30
0.0
11
22.7884
21
48.4212
31
0.0
0
LINE
8
13
10
15.0000
20
30.0000
30
0.0
11
7.2116
21
48.4212
31
0.0
0
TEXT
8
15
10
71.7500
20
184.5000
30
0.0
40
8.0000
1
bodice_back sz12
0
ENDSEC
0
EOF
