0
SECTION
2
HEADER
9
$INSUNITS
70
4
0
ENDSEC
0
SECTION
2
TABLES
0
TABLE
2
LAYER
70
5
0
LAYER
2
1
70
0
62
7
6
CONTINUOUS
0
LAYER
2
8
70
0
62
3
6
CONTINUOUS
0
LAYER
2
11
70
0
62
1
6
CONTINUOUS
0
LAYER
2
13
70
0
62
5
6
CONTINUOUS
0
LAYER
2
15
70
0
62
2
6
CONTINUOUS
0
ENDTAB
0
ENDSEC
0
SECTION
2
ENTITIES
0
POLYLINE
8
1
66
1
70
1
0
VERTEX
8
1
10
0.0000
20
0.0000
30
0.0
0
VERTEX
8
1
10
0.0000
20
410.0000
30
0.0
0
VERTEX
8
1
10
9.3533
20
406.3796
30
0.0
0
VERTEX
8
1
10
18.5764
20
401.9329
30
0.0
0
VERTEX
8
1
10
27.5391
20
396.7188
30
0.0
0
VERTEX
8
1
10
36.1111
20
390.7963
30
0.0
0
VERTEX
8
1
10
44.1623
20
384.2245
30
0.0
0
VERTEX
8
1
10
51.5625
20
377.0625
30
0.0
0
VERTEX
8
1
10
58.1814
20
369.3692
30
0.0
0
VERTEX
8
1
10
63.8889
20
361.2037
30
0.0
0
VERTEX
8
1
10
68.5547
20
352.6250
30
0.0
0
VERTEX
8
1
10
72.0486
20
343.6921
30
0.0
0
VERTEX
8
1
10
74.2405
20
334.4641
30
0.0
0
VERTEX
8
1
10
75.0000
20
325.0000
30
0.0
0
VERTEX
8
1
10
190.2562
20
285.0000
30
0.0
0
VERTEX
8
1
10
192.7080
20
276.8038
30
0.0
0
VERTEX
8
1
10
195.6823
20
270.2157
30
0.0
0
VERTEX
8
1
10
199.0357
20
264.9156
30
0.0
0
VERTEX
8
1
10
202.6253
20
260.5831
30
0.0
0
VERTEX
8
1
10
206.3076
20
256.8978
30
0.0
0
VERTEX
8
1
10
209.9396
20
253.5394
30
0.0
0
VERTEX
8
1
10
213.3781
20
250.1875
30
0.0
0
VERTEX
8
1
10
216.4799
20
246.5219
30
0.0
0
VERTEX
8
1
10
219.1017
20
242.2221
30
0.0
0
VERTEX
8
1
10
221.1004
20
236.9679
30
0.0
0
VERTEX
8
1
10
222.3327
20
230.4390
30
0.0
0
VERTEX
8
1
10
222.6556
20
222.3149
30
0.0
0
VERTEX
8
1
10
221.9257
20
212.2753
30
0.0
0
VERTEX
8
1
10
220.0000
20
200.0000
30
0.0
0
VERTEX
8
1
10
205.0000
20
0.0000
30
0.0
0
SEQEND
0
POLYLINE
8
8
66
1
70
0
0
VERTEX
8
8
10
81.5000
20
0.0000
30
0.0
0
VERTEX
8
8
10
99.0000
20
210.0000
30
0.0
0
VERTEX
8
8
10
116.5000
20
0.0000
30
0.0
0
SEQEND
0
LINE
8
11
10
81.5000
20
0.0000
30
0.0
11
81.5000
21
6.0000
31
0.0
0
LINE
8
11
10
116.5000
20
0.0000
30
0.0
11
116.5000
21
6.0000
31
0.0
0
LINE
8
11
10
220.0000
20
200.0000
30
0.0
11
214.0000
21
200.0000
31
0.0
0
LINE
8
13
10
15.0000
20
30.0000
30
0.0
11
15.0000
21
380.0000
31
0.0
0
LINE
8
13
10
15.0000
20
380.0000
30
0.0
11
7.2116
21
361.5788
31
0.0
0
LINE
8
13
10
15.0000
20
380.0000
30
0.0
11
22.7884
21
361.5788
31
0.0
0
LINE
8
13
10
15.0000
20
30.0000
30
0.0
11
22.7884
21
48.4212
31
0.0
0
LINE
8
13
10
15.0000
20
30.0000
30
0.0
11
7.2116
21
48.4212
31
0.0
0
TEXT
8
15
10
77.0000
20
184.5000
30
0.0
40
8.0000
1
bodice_front sz12
0
ENDSEC
0
EOF
