0
SECTION
2
HEADER
9
$INSUNITS
70
4
0
ENDSEC
0
SECTION
2
TABLES
0
TABLE
2
LAYER
70
5
0
LAYER
2
1
70
0
62
7
6
CONTINUOUS
0
LAYER
2
8
70
0
62
3
6
CONTINUOUS
0
LAYER
2
11
70
0
62
1
6
CONTINUOUS
0
LAYER
2
13
70
0
62
5
6
CONTINUOUS
0
LAYER
2
15
70
0
62
2
6
CONTINUOUS
0
ENDTAB
0
ENDSEC
0
SECTION
2
ENTITIES
0
POLYLINE
8
1
66
1
70
1
0
VERTEX
8
1
10
0.0000
20
0.0000
30
0.0
0
VERTEX
8
1
10
209.0000
20
0.0000
30
0.0
0
VERTEX
8
1
10
209.9333
20
-18.7485
30
0.0
0
VERTEX
8
1
10
211.3848
20
-36.4781
30
0.0
0
VERTEX
8
1
10
213.2606
20
-53.2719
30
0.0
0
VERTEX
8
1
10
215.4665
20
-69.2128
30
0.0
0
VERTEX
8
1
10
217.9085
20
-84.3841
30
0.0
0
VERTEX
8
1
10
220.4927
20
-98.8688
30
0.0
0
VERTEX
8
1
10
223.1250
20
-112.7500
30
0.0
0
VERTEX
8
1
10
225.7114
20
-126.1108
30
0.0
0
VERTEX
8
1
10
228.1578
20
-139.0343
30
0.0
0
VERTEX
8
1
10
230.3703
20
-151.6035
30
0.0
0
VERTEX
8
1
10
232.2547
20
-163.9016
30
0.0
0
VERTEX
8
1
10
233.7172
20
-176.0117
30
0.0
0
VERTEX
8
1
10
234.6636
20
-188.0168
30
0.0
0
VERTEX
8
1
10
235.0000
20
-200.0000
30
0.0
0
VERTEX
8
1
10
235.0000
20
-600.0000
30
0.0
0
VERTEX
8
1
10
0.0000
20
-600.0000
30
0.0
0
SEQEND
0
POLYLINE
8
8
66
1
70
0
0
VERTEX
8
8
10
95.4500
20
0.0000
30
0.0
0
VERTEX
8
8
10
114.9500
20
-140.0000
30
0.0
0
VERTEX
8
8
10
134.4500
20
0.0000
30
0.0
0
SEQEND
0
LINE
8
11
10
95.4500
20
0.0000
30
0.0
11
95.4500
21
-6.0000
31
0.0
0
LINE
8
11
10
134.4500
20
0.0000
30
0.0
11
134.4500
21
-6.0000
31
0.0
0
LINE
8
11
10
235.0000
20
-200.0000
30
0.0
11
229.0000
21
-200.0000
31
0.0
0
LINE
8
13
10
94.0500
20
-50.0000
30
0.0
11
94.0500
21
-550.0000
31
0.0
0
LINE
8
13
10
94.0500
20
-550.0000
30
0.0
11
101.8384
21
-531.5788
31
0.0
0
LINE
8
13
10
94.0500
20
-550.0000
30
0.0
11
86.2616
21
-531.5788
31
0.0
0
LINE
8
13
10
94.0500
20
-50.0000
30
0.0
11
86.2616
21
-68.4212
31
0.0
0
LINE
8
13
10
94.0500
20
-50.0000
30
0.0
11
101.8384
21
-68.4212
31
0.0
0
TEXT
8
15
10
73.1500
20
-300.0000
30
0.0
40
8.0000
1
skirt_back sz12
0
ENDSEC
0
EOF
