0
SECTION
2
HEADER
9
$INSUNITS
70
4
0
ENDSEC
0
SECTION
2
TABLES
0
TABLE
2
LAYER
70
5
0
LAYER
2
1
70
0
62
7
6
CONTINUOUS
0
LAYER
2
8
70
0
62
3
6
CONTINUOUS
0
LAYER
2
11
70
0
62
1
6
CONTINUOUS
0
LAYER
2
13
70
0
62
5
6
CONTINUOUS
0
LAYER
2
15
70
0
62
2
6
CONTINUOUS
0
ENDTAB
0
ENDSEC
0
SECTION
2
ENTITIES
0
POLYLINE
8
1
66
1
70
1
0
VERTEX
8
1
10
0.0000
20
0.0000
30
0.0
0
VERTEX
8
1
10
202.5000
20
0.0000
30
0.0
0
VERTEX
8
1
10
203.5281
20
-18.7485
30
0.0
0
VERTEX
8
1
10
205.2449
20
-36.4781
30
0.0
0
VERTEX
8
1
10
207.5281
20
-53.2719
30
0.0
0
VERTEX
8
1
10
210.2551
20
-69.2128
30
0.0
0
VERTEX
8
1
10
213.3036
20
-84.3841
30
0.0
0
VERTEX
8
1
10
216.5510
20
-98.8688
30
0.0
0
VERTEX
8
1
10
219.8750
20
-112.7500
30
0.0
0
VERTEX
8
1
10
223.1531
20
-126.1108
30
0.0
0
VERTEX
8
1
10
226.2628
20
-139.0343
30
0.0
0
VERTEX
8
1
10
229.0816
20
-151.6035
30
0.0
0
VERTEX
8
1
10
231.4872
20
-163.9016
30
0.0
0
VERTEX
8
1
10
233.3571
20
-176.0117
30
0.0
0
VERTEX
8
1
10
234.5689
20
-188.0168
30
0.0
0
VERTEX
8
1
10
235.0000
20
-200.0000
30
0.0
0
VERTEX
8
1
10
235.0000
20
-600.0000
30
0.0
0
VERTEX
8
1
10
0.0000
20
-600.0000
30
0.0
0
SEQEND
0
POLYLINE
8
8
66
1
70
0
0
VERTEX
8
8
10
85.0000
20
0.0000
30
0.0
0
VERTEX
8
8
10
101.2500
20
-100.0000
30
0.0
0
VERTEX
8
8
10
117.5000
20
0.0000
30
0.0
0
SEQEND
0
LINE
8
11
10
85.0000
20
0.0000
30
0.0
11
85.0000
21
-6.0000
31
0.0
0
LINE
8
11
10
117.5000
20
0.0000
30
0.0
11
117.5000
21
-6.0000
31
0.0
0
LINE
8
11
10
235.0000
20
-200.0000
30
0.0
11
229.0000
21
-200.0000
31
0.0
0
LINE
8
13
10
91.1250
20
-50.0000
30
0.0
11
91.1250
21
-550.0000
31
0.0
0
LINE
8
13
10
91.1250
20
-550.0000
30
0.0
11
98.9134
21
-531.5788
31
0.0
0
LINE
8
13
10
91.1250
20
-550.0000
30
0.0
11
83.3366
21
-531.5788
31
0.0
0
LINE
8
13
10
91.1250
20
-50.0000
30
0.0
11
83.3366
21
-68.4212
31
0.0
0
LINE
8
13
10
91.1250
20
-50.0000
30
0.0
11
98.9134
21
-68.4212
31
0.0
0
TEXT
8
15
10
70.8750
20
-300.0000
30
0.0
40
8.0000
1
skirt_front sz12
0
ENDSEC
0
EOF
