0
SECTION
2
HEADER
9
$INSUNITS
70
4
0
ENDSEC
0
SECTION
2
TABLES
0
TABLE
2
LAYER
70
5
0
LAYER
2
1
70
0
62
7
6
CONTINUOUS
0
LAYER
2
8
70
0
62
3
6
CONTINUOUS
0
LAYER
2
11
70
0
62
1
6
CONTINUOUS
0
LAYER
2
13
70
0
62
5
6
CONTINUOUS
0
LAYER
2
15
70
0
62
2
6
CONTINUOUS
0
ENDTAB
0
ENDSEC
0
SECTION
2
ENTITIES
0
POLYLINE
8
1
66
1
70
1
0
VERTEX
8
1
10
-115.0000
20
0.0000
30
0.0
0
VERTEX
8
1
10
-170.0000
20
428.8000
30
0.0
0
VERTEX
8
1
10
-149.4485
20
461.9494
30
0.0
0
VERTEX
8
1
10
-130.2546
20
489.8750
30
0.0
0
VERTEX
8
1
10
-112.3594
20
513.0231
30
0.0
0
VERTEX
8
1
10
-95.7037
20
531.8400
30
0.0
0
VERTEX
8
1
10
-80.2286
20
546.7719
30
0.0
0
VERTEX
8
1
10
-65.8750
20
558.2650
30
0.0
0
VERTEX
8
1
10
-52.5839
20
566.7656
30
0.0
0
VERTEX
8
1
10
-40.2963
20
572.7200
30
0.0
0
VERTEX
8
1
10
-28.9531
20
576.5744
30
0.0
0
VERTEX
8
1
10
-18.4954
20
578.7750
30
0.0
0
VERTEX
8
1
10
-8.8640
20
579.7681
30
0.0
0
VERTEX
8
1
10
0.0000
20
580.0000
30
0.0
0
VERTEX
8
1
10
10.9742
20
579.1906
30
0.0
0
VERTEX
8
1
10
22.6273
20
576.6750
30
0.0
0
VERTEX
8
1
10
34.9297
20
572.3219
30
0.0
0
VERTEX
8
1
10
47.8519
20
566.0000
30
0.0
0
VERTEX
8
1
10
61.3643
20
557.5781
30
0.0
0
VERTEX
8
1
10
75.4375
20
546.9250
30
0.0
0
VERTEX
8
1
10
90.0420
20
533.9094
30
0.0
0
VERTEX
8
1
10
105.1481
20
518.4000
30
0.0
0
VERTEX
8
1
10
120.7266
20
500.2656
30
0.0
0
VERTEX
8
1
10
136.7477
20
479.3750
30
0.0
0
VERTEX
8
1
10
153.1820
20
455.5969
30
0.0
0
VERTEX
8
1
10
170.0000
20
428.8000
30
0.0
0
VERTEX
8
1
10
115.0000
20
0.0000
30
0.0
0
SEQEND
0
LINE
8
11
10
93.5000
20
496.8400
30
0.0
11
91.0632
21
502.3229
31
0.0
0
LINE
8
11
10
-76.5000
20
511.9600
30
0.0
11
-74.0632
21
517.4429
31
0.0
0
LINE
8
11
10
-102.0000
20
489.2800
30
0.0
11
-99.5632
21
494.7629
31
0.0
0
LINE
8
11
10
0.0000
20
580.0000
30
0.0
11
0.0000
21
574.0000
31
0.0
0
LINE
8
13
10
0.0000
20
30.0000
30
0.0
11
0.0000
21
550.0000
31
0.0
0
LINE
8
13
10
0.0000
20
550.0000
30
0.0
11
-7.7884
21
531.5788
31
0.0
0
LINE
8
13
10
0.0000
20
550.0000
30
0.0
11
7.7884
21
531.5788
31
0.0
0
LINE
8
13
10
0.0000
20
30.0000
30
0.0
11
7.7884
21
48.4212
31
0.0
0
LINE
8
13
10
0.0000
20
30.0000
30
0.0
11
-7.7884
21
48.4212
31
0.0
0
TEXT
8
15
10
-34.0000
20
232.0000
30
0.0
40
8.0000
1
sleeve sz12
0
ENDSEC
0
EOF
